<mxfile host="Electron" modified="2025-01-05T15:30:16.003Z" agent="Mozilla/5.0 (Windows NT 10.0; Win64; x64) AppleWebKit/537.36 (KHTML, like Gecko) draw.io/22.0.2 Chrome/114.0.5735.289 Electron/25.8.4 Safari/537.36" etag="sfD27_-OSHqoAwoa7jlv" version="22.0.2" type="device">
  <diagram name="第 1 页" id="FsQEPRPyNX1YDrqA0JHa">
    <mxGraphModel dx="1338" dy="820" grid="1" gridSize="10" guides="1" tooltips="1" connect="1" arrows="1" fold="1" page="1" pageScale="1" pageWidth="827" pageHeight="1169" math="0" shadow="0">
      <root>
        <mxCell id="0" />
        <mxCell id="1" parent="0" />
        <mxCell id="-qK9Osp9OA58yBva2SMu-1" value="LocationMap" style="swimlane;fontStyle=1;align=center;verticalAlign=top;childLayout=stackLayout;horizontal=1;startSize=30;horizontalStack=0;resizeParent=1;resizeParentMax=0;resizeLast=0;collapsible=1;marginBottom=0;whiteSpace=wrap;html=1;" vertex="1" parent="1">
          <mxGeometry x="200" y="40" width="200" height="116" as="geometry" />
        </mxCell>
        <mxCell id="-qK9Osp9OA58yBva2SMu-2" value="- instance: LocationMap" style="text;strokeColor=none;fillColor=none;align=left;verticalAlign=top;spacingLeft=4;spacingRight=4;overflow=hidden;rotatable=0;points=[[0,0.5],[1,0.5]];portConstraint=eastwest;whiteSpace=wrap;html=1;" vertex="1" parent="-qK9Osp9OA58yBva2SMu-1">
          <mxGeometry y="30" width="200" height="26" as="geometry" />
        </mxCell>
        <mxCell id="-qK9Osp9OA58yBva2SMu-3" value="" style="line;strokeWidth=1;fillColor=none;align=left;verticalAlign=middle;spacingTop=-1;spacingLeft=3;spacingRight=3;rotatable=0;labelPosition=right;points=[];portConstraint=eastwest;strokeColor=inherit;" vertex="1" parent="-qK9Osp9OA58yBva2SMu-1">
          <mxGeometry y="56" width="200" height="8" as="geometry" />
        </mxCell>
        <mxCell id="-qK9Osp9OA58yBva2SMu-4" value="- LocationMap()" style="text;strokeColor=none;fillColor=none;align=left;verticalAlign=top;spacingLeft=4;spacingRight=4;overflow=hidden;rotatable=0;points=[[0,0.5],[1,0.5]];portConstraint=eastwest;whiteSpace=wrap;html=1;" vertex="1" parent="-qK9Osp9OA58yBva2SMu-1">
          <mxGeometry y="64" width="200" height="26" as="geometry" />
        </mxCell>
        <mxCell id="-qK9Osp9OA58yBva2SMu-5" value="+ getInstance(): LocationMap" style="text;strokeColor=none;fillColor=none;align=left;verticalAlign=top;spacingLeft=4;spacingRight=4;overflow=hidden;rotatable=0;points=[[0,0.5],[1,0.5]];portConstraint=eastwest;whiteSpace=wrap;html=1;" vertex="1" parent="-qK9Osp9OA58yBva2SMu-1">
          <mxGeometry y="90" width="200" height="26" as="geometry" />
        </mxCell>
        <mxCell id="-qK9Osp9OA58yBva2SMu-6" value="&lt;b&gt;Client&lt;/b&gt;" style="html=1;whiteSpace=wrap;" vertex="1" parent="1">
          <mxGeometry x="40" y="120" width="80" height="30" as="geometry" />
        </mxCell>
        <mxCell id="-qK9Osp9OA58yBva2SMu-7" value="" style="endArrow=open;endFill=1;endSize=12;html=1;rounded=0;exitX=1;exitY=0.5;exitDx=0;exitDy=0;" edge="1" parent="1" source="-qK9Osp9OA58yBva2SMu-6">
          <mxGeometry width="160" relative="1" as="geometry">
            <mxPoint x="120" y="200" as="sourcePoint" />
            <mxPoint x="200" y="135" as="targetPoint" />
          </mxGeometry>
        </mxCell>
        <mxCell id="-qK9Osp9OA58yBva2SMu-8" value="" style="endArrow=open;endFill=1;endSize=12;html=1;rounded=0;exitX=1;exitY=0.5;exitDx=0;exitDy=0;" edge="1" parent="1">
          <mxGeometry width="160" relative="1" as="geometry">
            <mxPoint x="400" y="90" as="sourcePoint" />
            <mxPoint x="400" y="60" as="targetPoint" />
            <Array as="points">
              <mxPoint x="460" y="90" />
              <mxPoint x="460" y="60" />
            </Array>
          </mxGeometry>
        </mxCell>
        <mxCell id="-qK9Osp9OA58yBva2SMu-9" value="" style="endArrow=none;dashed=1;html=1;rounded=0;entryX=0.2;entryY=1.008;entryDx=0;entryDy=0;entryPerimeter=0;" edge="1" parent="1" target="-qK9Osp9OA58yBva2SMu-5">
          <mxGeometry width="50" height="50" relative="1" as="geometry">
            <mxPoint x="240" y="190" as="sourcePoint" />
            <mxPoint x="240" y="160" as="targetPoint" />
          </mxGeometry>
        </mxCell>
        <mxCell id="-qK9Osp9OA58yBva2SMu-10" value="&lt;font style=&quot;font-size: 10px;&quot;&gt;&amp;nbsp; if (instance == nullptr) {&lt;br&gt;&amp;nbsp; &amp;nbsp; &amp;nbsp; instance = new LocationMap()&lt;br&gt;&amp;nbsp; }&lt;br&gt;&amp;nbsp; return instance&lt;/font&gt;" style="shape=note;whiteSpace=wrap;html=1;backgroundOutline=1;darkOpacity=0.05;align=left;size=20;" vertex="1" parent="1">
          <mxGeometry x="200" y="190" width="200" height="70" as="geometry" />
        </mxCell>
      </root>
    </mxGraphModel>
  </diagram>
</mxfile>
